<svg width="851" height="360" viewBox="0 0 851 360" fill="none" xmlns="http://www.w3.org/2000/svg">
<path fill-rule="evenodd" clip-rule="evenodd" d="M220.733 288.667C220.733 288.667 117.267 274.133 75.1333 263.333C51.6666 257.333 18.3333 246.8 5.79996 241.467C2.86663 240.267 0.333298 239.467 0.0666312 239.867C-0.733369 240.667 24.8666 250.8 45.8 258C96.4666 275.333 158.733 288.8 224.333 296.667C237.533 298.267 248.467 299.733 248.733 300L286.467 303.067L322.067 304.667C359.8 306.533 430.867 305.867 467 303.333C505.667 300.667 579.667 292.133 589.133 289.2C590.867 288.8 592.867 291.467 597.4 300.933C615.533 337.867 650.2 359.6 691 359.467C739.4 359.467 779.533 328 791.933 280.667C795.133 267.867 795.4 246.267 792.467 233.467C791.267 228.4 790.467 224.133 790.6 224C790.867 223.733 795.8 220.4 801.667 216.533C807.533 212.667 818.2 203.6 825.267 196.533C835.933 185.867 839 181.733 843.533 172.533C853.4 152 853.4 136 843.533 115.6C839.133 106.4 835.933 102.133 825.933 92.1333C792.2 58.5333 731.267 31.7334 645 12.8C623.267 8.00002 577.533 0.266683 575.4 0.93335C574.467 1.33335 578.2 2.26668 583.667 3.20001C600.067 5.86668 645.933 16.2667 665.8 21.8667C718.333 36.6667 763 55.6 793 75.4667C811.267 87.4667 828.467 105.2 835.133 118.667C839.8 128 840.333 130.533 840.733 140.667C841.133 149.467 840.6 153.733 838.6 159.6C832.333 177.2 814.867 196.133 790.733 211.467L786.6 214.133L782.333 206.133C762.467 168.933 718.333 146.533 677 152.533C638.333 158.267 606.2 184.267 592.867 220.667C587.533 235.333 585.4 253.467 587.267 266.933C588.067 272.667 588.6 277.467 588.467 277.733C587.667 278.533 543.667 284.933 522.333 287.333C473 292.933 449.133 294.267 382.733 294.933C346.6 295.333 312.6 295.2 307.133 294.667C307.133 294.667 266.905 292.864 263 292.5L220.733 288.667ZM766.2 218C755.667 196.4 733.667 178.933 710.333 173.467C701.133 171.2 682.6 170.933 673.667 172.667C658.2 175.733 637.267 187.867 627.933 198.8C620.733 207.467 613.533 219.6 610.333 229.067C606.333 240.667 605.267 262.133 608.2 274.667C617.533 314.4 655.533 342.933 695.667 340.133C717.8 338.667 734.733 331.067 750.333 315.333C776.867 288.933 782.867 252 766.2 218Z" fill="black"/>
</svg>
